# Blender v2.79 (sub 0) OBJ File: ''
# www.blender.org
mtllib desk_blender.mtl
o Box001_Untitled
v -1.852469 0.234292 -0.642367
v 2.093690 0.234292 -0.642367
v -1.852469 0.444130 0.183452
v 2.093690 0.444130 0.183452
v -1.852469 0.444130 -0.642367
v 2.093690 0.444130 -0.642367
v -1.852469 0.444130 0.183452
v 2.093690 0.444130 0.183452
v 2.093690 0.444130 -0.642367
v -1.852469 0.444130 -0.642367
v -1.852469 0.382917 0.183452
v 2.093690 0.382917 0.183452
v 2.093690 0.382917 -0.642367
v -1.852469 0.382917 -0.642367
v 2.093690 0.234292 -0.642367
v -1.852469 0.234292 -0.642367
v -1.852469 0.444130 -0.642367
v 2.093690 0.444130 -0.642367
v 2.093690 0.234292 -0.669913
v -1.852469 0.234292 -0.669913
v -1.852469 0.444130 -0.669913
v 2.093690 0.444130 -0.669913
v -1.838084 0.444130 -0.642367
v -1.838084 0.382917 -0.642367
v -1.838084 0.382917 0.183452
v -1.838084 0.444130 0.183452
v -1.852469 0.444130 -0.625393
v 2.093690 0.444130 -0.625393
v -1.852469 0.462494 -0.642367
v 2.093690 0.462494 -0.642367
v 2.093690 0.462494 -0.669913
v -1.852469 0.462494 -0.669913
v -1.852469 0.444130 -0.607373
v -1.852469 0.382917 -0.607373
v -1.838084 0.382917 -0.607373
v 2.093690 0.382917 -0.607373
v 2.093690 0.444130 -0.607373
v -1.852469 0.444130 0.120396
v 2.093690 0.444130 0.120396
v -1.679155 0.444130 0.183452
v -1.679155 0.444130 0.120396
v -1.679155 0.444130 -0.625393
v -1.679155 0.444130 -0.642367
v -1.679155 0.234292 -0.642367
v 1.958071 0.444130 0.183452
v 1.958071 0.444130 0.120396
v 1.958071 0.444130 -0.625393
v 1.958071 0.444130 -0.642367
v 1.958071 0.234292 -0.642367
v 1.850770 -0.029547 -0.576364
v 1.965927 -0.029547 -0.576364
v 1.850770 -0.029547 -0.646053
v 1.965927 -0.029547 -0.646053
v 1.850770 0.428252 -0.576364
v 1.965927 0.428252 -0.576364
v 1.850770 0.428252 -0.646053
v 1.965927 0.428252 -0.646053
v 0.050347 -0.029547 -0.576364
v 0.165504 -0.029547 -0.576364
v 0.050347 -0.029547 -0.646053
v 0.165504 -0.029547 -0.646053
v 0.050347 0.428252 -0.576364
v 0.165504 0.428252 -0.576364
v 0.050347 0.428252 -0.646053
v 0.165504 0.428252 -0.646053
v 2.104353 0.478502 -0.656140
v 2.104342 0.477808 -0.661423
v 2.104310 0.475811 -0.666068
v 2.104260 0.472751 -0.669516
v 2.104200 0.468998 -0.671351
v 2.104135 0.465003 -0.671351
v 2.104074 0.461250 -0.669516
v 2.104025 0.458190 -0.666068
v 2.103993 0.456193 -0.661423
v 2.103982 0.455499 -0.656140
v 2.103993 0.456193 -0.650857
v 2.104025 0.458190 -0.646212
v 2.104074 0.461250 -0.642764
v 2.104135 0.465003 -0.640929
v 2.104200 0.468998 -0.640929
v 2.104260 0.472751 -0.642764
v 2.104310 0.475811 -0.646212
v 2.104342 0.477808 -0.650857
v 1.310643 0.478967 -0.656140
v 1.310632 0.478273 -0.661423
v 1.310600 0.476276 -0.666068
v 1.310550 0.473216 -0.669516
v 1.310490 0.469463 -0.671351
v 1.310426 0.465469 -0.671351
v 1.310365 0.461715 -0.669516
v 1.310316 0.458655 -0.666068
v 1.310283 0.456658 -0.661423
v 1.310272 0.455964 -0.656140
v 1.310283 0.456658 -0.650857
v 1.310316 0.458655 -0.646212
v 1.310365 0.461715 -0.642764
v 1.310426 0.465469 -0.640929
v 1.310490 0.469463 -0.640929
v 1.310550 0.473216 -0.642764
v 1.310600 0.476276 -0.646212
v 1.310632 0.478273 -0.650857
v 0.516934 0.479432 -0.656140
v 0.516923 0.478739 -0.661423
v 0.516890 0.476741 -0.666068
v 0.516841 0.473682 -0.669516
v 0.516780 0.469928 -0.671351
v 0.516716 0.465934 -0.671351
v 0.516655 0.462180 -0.669516
v 0.516606 0.459120 -0.666068
v 0.516574 0.457123 -0.661423
v 0.516563 0.456430 -0.656140
v 0.516574 0.457123 -0.650857
v 0.516606 0.459120 -0.646212
v 0.516655 0.462180 -0.642764
v 0.516716 0.465934 -0.640929
v 0.516780 0.469928 -0.640929
v 0.516841 0.473682 -0.642764
v 0.516890 0.476741 -0.646212
v 0.516923 0.478739 -0.650857
v -0.276776 0.479898 -0.656140
v -0.276787 0.479204 -0.661423
v -0.276819 0.477207 -0.666068
v -0.276868 0.474147 -0.669516
v -0.276929 0.470393 -0.671351
v -0.276993 0.466399 -0.671351
v -0.277054 0.462646 -0.669516
v -0.277103 0.459586 -0.666068
v -0.277136 0.457588 -0.661423
v -0.277147 0.456895 -0.656140
v -0.277136 0.457588 -0.650857
v -0.277103 0.459586 -0.646212
v -0.277054 0.462646 -0.642764
v -0.276993 0.466399 -0.640929
v -0.276929 0.470393 -0.640929
v -0.276868 0.474147 -0.642764
v -0.276819 0.477207 -0.646212
v -0.276787 0.479204 -0.650857
v -1.070485 0.480363 -0.656140
v -1.070497 0.479669 -0.661423
v -1.070529 0.477672 -0.666068
v -1.070578 0.474612 -0.669516
v -1.070639 0.470859 -0.671351
v -1.070703 0.466864 -0.671351
v -1.070763 0.463111 -0.669516
v -1.070813 0.460051 -0.666068
v -1.070845 0.458054 -0.661423
v -1.070856 0.457360 -0.656140
v -1.070845 0.458054 -0.650857
v -1.070813 0.460051 -0.646212
v -1.070763 0.463111 -0.642764
v -1.070703 0.466864 -0.640929
v -1.070639 0.470859 -0.640929
v -1.070578 0.474612 -0.642764
v -1.070529 0.477672 -0.646212
v -1.070497 0.479669 -0.650857
v -1.864195 0.480828 -0.656140
v -1.864206 0.480134 -0.661423
v -1.864238 0.478137 -0.666068
v -1.864288 0.475077 -0.669516
v -1.864348 0.471324 -0.671351
v -1.864413 0.467329 -0.671351
v -1.864473 0.463576 -0.669516
v -1.864522 0.460516 -0.666068
v -1.864554 0.458519 -0.661423
v -1.864566 0.457825 -0.656140
v -1.864554 0.458519 -0.650857
v -1.864522 0.460516 -0.646212
v -1.864473 0.463576 -0.642764
v -1.864413 0.467329 -0.640929
v -1.864348 0.471324 -0.640929
v -1.864288 0.475077 -0.642764
v -1.864238 0.478137 -0.646212
v -1.864206 0.480134 -0.650857
v -1.722107 -0.029547 -0.576364
v -1.606950 -0.029547 -0.576364
v -1.722107 -0.029547 -0.646053
v -1.606950 -0.029547 -0.646053
v -1.722107 0.428252 -0.576364
v -1.606950 0.428252 -0.576364
v -1.722107 0.428252 -0.646053
v -1.606950 0.428252 -0.646053
vt 0.003645 0.000000
vt 0.003645 0.957626
vt 0.000000 0.957626
vt 0.000000 0.000000
vt 0.003645 1.000000
vt 0.003645 1.000000
vt 1.000000 1.000000
vt 1.000000 1.000000
vt 0.000000 0.000000
vt 1.000000 0.000000
vt 1.000000 1.000000
vt 0.000000 1.000000
vt 0.000000 0.000000
vt 1.000000 0.000000
vt 1.000000 1.000000
vt 1.000000 1.000000
vt 0.000000 1.000000
vt 0.000000 1.000000
vt 1.000000 1.000000
vt 0.000000 1.000000
vt 1.000000 0.000000
vt 1.000000 0.957626
vt 0.000000 1.000000
vt 0.000000 1.000000
vt 1.000000 0.000000
vt 1.000000 1.000000
vt 0.956080 1.000000
vt 0.956080 0.000000
vt 0.034367 1.000000
vt 0.034367 0.000000
vt 0.043920 0.979446
vt 0.043920 0.076356
vt 0.965633 0.076356
vt 0.965633 0.979446
vt 0.195329 0.000000
vt 0.087370 0.000000
vt 0.029181 0.000000
vt 0.027779 0.000000
vt 0.083334 0.000000
vt 0.189145 0.000000
vt 0.332451 0.000000
vt 0.495965 0.000000
vt 0.659966 0.000000
vt 0.804672 0.000000
vt 0.912631 0.000000
vt 0.970821 0.000000
vt 0.972222 0.000000
vt 0.916667 0.000000
vt 0.861111 0.000000
vt 0.805556 0.000000
vt 0.750000 0.000000
vt 0.340035 0.000000
vt 0.805556 0.200000
vt 0.750000 0.200000
vt 0.861111 0.200000
vt 0.916667 0.200000
vt 0.972222 0.200000
vt -0.027778 0.000000
vt 0.027778 0.000000
vt 0.027778 0.200000
vt -0.027778 0.200000
vt 0.083333 0.000000
vt 0.083333 0.200000
vt 0.138889 0.000000
vt 0.138889 0.200000
vt 0.194444 0.000000
vt 0.194444 0.200000
vt 0.250000 0.000000
vt 0.250000 0.200000
vt 0.305556 0.000000
vt 0.305556 0.200000
vt 0.361111 0.000000
vt 0.361111 0.200000
vt 0.416667 0.000000
vt 0.416667 0.200000
vt 0.472222 0.000000
vt 0.472222 0.200000
vt 0.527778 0.000000
vt 0.527778 0.200000
vt 0.583333 0.000000
vt 0.583333 0.200000
vt 0.638889 0.000000
vt 0.638889 0.200000
vt 0.694444 0.000000
vt 0.694444 0.200000
vt 0.805556 0.400000
vt 0.750000 0.400000
vt 0.861111 0.400000
vt 0.916667 0.400000
vt 0.972222 0.400000
vt 0.027778 0.400000
vt -0.027778 0.400000
vt 0.083333 0.400000
vt 0.138889 0.400000
vt 0.194444 0.400000
vt 0.250000 0.400000
vt 0.305556 0.400000
vt 0.361111 0.400000
vt 0.416667 0.400000
vt 0.472222 0.400000
vt 0.527778 0.400000
vt 0.583333 0.400000
vt 0.638889 0.400000
vt 0.694444 0.400000
vt 0.805556 0.600000
vt 0.750000 0.600000
vt 0.861111 0.600000
vt 0.916667 0.600000
vt 0.972222 0.600000
vt 0.027778 0.600000
vt -0.027778 0.600000
vt 0.083333 0.600000
vt 0.138889 0.600000
vt 0.194444 0.600000
vt 0.250000 0.600000
vt 0.305556 0.600000
vt 0.361111 0.600000
vt 0.416667 0.600000
vt 0.472222 0.600000
vt 0.527778 0.600000
vt 0.583333 0.600000
vt 0.638889 0.600000
vt 0.694444 0.600000
vt 0.805556 0.800000
vt 0.750000 0.800000
vt 0.861111 0.800000
vt 0.916667 0.800000
vt 0.972222 0.800000
vt 0.027778 0.800000
vt -0.027778 0.800000
vt 0.083333 0.800000
vt 0.138889 0.800000
vt 0.194444 0.800000
vt 0.250000 0.800000
vt 0.305556 0.800000
vt 0.361111 0.800000
vt 0.416667 0.800000
vt 0.472222 0.800000
vt 0.527778 0.800000
vt 0.583333 0.800000
vt 0.638889 0.800000
vt 0.694444 0.800000
vt 0.805556 1.000000
vt 0.750000 1.000000
vt 0.861111 1.000000
vt 0.916667 1.000000
vt 0.972222 1.000000
vt 0.027778 1.000000
vt -0.027778 1.000000
vt 0.083333 1.000000
vt 0.138889 1.000000
vt 0.194444 1.000000
vt 0.250000 1.000000
vt 0.305556 1.000000
vt 0.361111 1.000000
vt 0.416667 1.000000
vt 0.472222 1.000000
vt 0.527778 1.000000
vt 0.583333 1.000000
vt 0.638889 1.000000
vt 0.694444 1.000000
vt 0.970821 1.000000
vt 0.912631 1.000000
vt 0.804673 1.000000
vt 0.659966 1.000000
vt 0.495965 1.000000
vt 0.332450 1.000000
vt 0.189145 1.000000
vt 0.083333 1.000000
vt 0.027778 1.000000
vt 0.029179 1.000000
vt 0.087368 1.000000
vt 0.195327 1.000000
vt 0.043920 0.000000
vt 0.000000 0.076356
vt 0.000000 0.000000
vt 0.000000 1.000000
vt 0.000000 0.000000
vt 0.003645 0.000000
vt 0.000000 0.000000
vt 1.000000 0.957626
vt 1.000000 0.000000
vt 0.000000 0.957626
vt 1.000000 1.000000
vt 0.965633 1.000000
vt 1.000000 0.979446
vt 1.000000 0.076356
vt 0.965633 0.000000
vt 0.000000 1.000000
vt 0.000000 0.979446
vt 0.043920 1.000000
vt 1.000000 0.000000
vt 1.000000 0.000000
vt 1.000000 1.000000
vt 0.000000 1.000000
vt 0.000000 0.000000
vt 0.000000 0.000000
vt 1.000000 0.000000
vt 1.000000 1.000000
vt 0.000000 1.000000
vt 0.000000 0.000000
vt 1.000000 0.000000
vt 1.000000 1.000000
vt 0.000000 1.000000
vt 1.000000 0.000000
vt 0.000000 1.000000
vt 0.000000 0.000000
vt 1.000000 0.000000
vt 1.000000 1.000000
vt 0.000000 1.000000
vt 0.000000 0.000000
vt 1.000000 1.000000
vt 1.000000 0.000000
vt 1.000000 1.000000
vt 0.000000 1.000000
vt 0.000000 0.000000
vt 0.000000 0.000000
vt 1.000000 0.000000
vt 1.000000 1.000000
vt 0.000000 1.000000
vt 0.000000 0.000000
vt 1.000000 0.000000
vt 1.000000 1.000000
vt 0.000000 1.000000
vt 1.000000 0.000000
vt 0.000000 1.000000
vt 0.000000 0.000000
vt 1.000000 0.000000
vt 1.000000 1.000000
vt 0.000000 1.000000
vt 0.000000 0.000000
vt 1.000000 1.000000
vt 1.000000 0.000000
vt 1.000000 1.000000
vt 0.000000 1.000000
vt 0.000000 0.000000
vt 0.000000 0.000000
vt 1.000000 0.000000
vt 1.000000 1.000000
vt 0.000000 1.000000
vt 0.000000 0.000000
vt 1.000000 0.000000
vt 1.000000 1.000000
vt 0.000000 1.000000
vt 1.000000 0.000000
vt 0.000000 1.000000
vt 0.000000 0.000000
vt 1.000000 0.000000
vt 1.000000 1.000000
vt 0.000000 1.000000
vt 0.000000 0.000000
vt 1.000000 1.000000
vn 0.0000 1.0000 -0.0000
vn 0.0000 0.0000 1.0000
vn 0.0000 -0.0000 -1.0000
vn 0.0000 -1.0000 0.0000
vn -1.0000 0.0000 0.0000
vn 1.0000 0.0000 0.0000
vn 0.9999 -0.0162 -0.0000
vn 0.9999 -0.0158 -0.0000
vn 0.9999 -0.0161 0.0000
vn 0.9999 -0.0161 0.0001
vn 0.9999 -0.0160 0.0000
vn 0.9999 -0.0161 -0.0001
vn 0.9999 -0.0159 0.0000
vn 0.9999 -0.0168 0.0001
vn 0.9999 -0.0168 -0.0001
vn 0.0006 1.0000 0.0000
vn 0.0006 0.9643 -0.2647
vn 0.0006 0.9642 -0.2651
vn 0.0005 0.8445 -0.5355
vn 0.0005 0.8441 -0.5362
vn 0.0004 0.6062 -0.7953
vn 0.0004 0.6050 -0.7962
vn 0.0001 0.2275 -0.9738
vn 0.0001 0.2254 -0.9743
vn -0.0001 -0.2232 -0.9748
vn -0.0001 -0.2254 -0.9743
vn -0.0004 -0.6038 -0.7971
vn -0.0004 -0.6050 -0.7962
vn -0.0005 -0.8436 -0.5369
vn -0.0005 -0.8441 -0.5362
vn -0.0006 -0.9641 -0.2654
vn -0.0006 -0.9642 -0.2651
vn -0.0006 -1.0000 -0.0000
vn -0.0006 -0.9641 0.2654
vn -0.0006 -0.9642 0.2651
vn -0.0005 -0.8436 0.5369
vn -0.0005 -0.8441 0.5362
vn -0.0004 -0.6038 0.7971
vn -0.0004 -0.6050 0.7962
vn -0.0001 -0.2232 0.9748
vn -0.0001 -0.2254 0.9743
vn 0.0001 0.2275 0.9738
vn 0.0001 0.2254 0.9743
vn 0.0004 0.6062 0.7953
vn 0.0004 0.6050 0.7962
vn 0.0005 0.8445 0.5355
vn 0.0005 0.8441 0.5362
vn 0.0006 0.9643 0.2647
vn 0.0006 0.9642 0.2651
vn 0.0006 0.9641 -0.2654
vn 0.0005 0.8436 -0.5369
vn 0.0004 0.6038 -0.7971
vn 0.0001 0.2232 -0.9748
vn -0.0001 -0.2275 -0.9738
vn -0.0004 -0.6062 -0.7953
vn -0.0005 -0.8445 -0.5355
vn -0.0006 -0.9643 -0.2647
vn -0.0006 -0.9643 0.2647
vn -0.0005 -0.8445 0.5355
vn -0.0004 -0.6063 0.7953
vn -0.0001 -0.2275 0.9738
vn 0.0001 0.2232 0.9748
vn 0.0004 0.6038 0.7971
vn 0.0005 0.8436 0.5369
vn 0.0006 0.9641 0.2654
vn -0.9999 0.0162 0.0000
vn -0.9999 0.0158 0.0001
vn -0.9999 0.0161 0.0000
vn -0.9999 0.0160 0.0000
vn -0.9999 0.0162 0.0002
vn -0.9999 0.0163 0.0000
vn -0.9999 0.0161 -0.0002
vn -0.9999 0.0159 -0.0000
vn -0.9999 0.0163 -0.0001
usemtl Table_top
s 1
f 25/1/1 35/2/1 34/3/1
f 34/3/1 11/4/1 25/1/1
f 23/5/2 24/6/2 13/7/2
f 13/7/2 9/8/2 23/5/2
f 19/9/3 20/10/3 21/11/3
f 21/11/3 22/12/3 19/9/3
f 15/13/4 16/14/4 20/10/4
f 20/10/4 19/9/4 15/13/4
f 16/14/5 17/15/5 21/11/5
f 21/11/5 20/10/5 16/14/5
f 29/16/1 30/17/1 31/18/1
f 31/18/1 32/19/1 29/16/1
f 18/20/6 15/13/6 19/9/6
f 19/9/6 22/12/6 18/20/6
f 12/21/1 36/22/1 35/2/1
f 35/2/1 25/1/1 12/21/1
f 10/23/2 14/24/2 24/6/2
f 24/6/2 23/5/2 10/23/2
f 17/15/2 18/20/2 30/17/2
f 30/17/2 29/16/2 17/15/2
f 18/20/6 22/12/6 31/18/6
f 31/18/6 30/17/6 18/20/6
f 22/12/3 21/11/3 32/19/3
f 32/19/3 31/18/3 22/12/3
f 21/11/5 17/15/5 29/16/5
f 29/16/5 32/19/5 21/11/5
f 24/6/1 14/24/1 34/3/1
f 34/3/1 35/2/1 24/6/1
f 13/7/1 24/6/1 35/2/1
f 35/2/1 36/22/1 13/7/1
f 1/25/3 5/26/3 43/27/3
f 43/27/3 44/28/3 1/25/3
f 44/28/3 43/27/3 48/29/3
f 48/29/3 49/30/3 44/28/3
f 42/31/1 41/32/1 46/33/1
f 46/33/1 47/34/1 42/31/1
f 82/35/7 81/36/8 80/37/9
f 80/37/9 79/38/10 78/39/7
f 78/39/7 77/40/11 76/41/9
f 80/37/9 78/39/7 76/41/9
f 76/41/9 75/42/11 74/43/9
f 74/43/9 73/44/11 72/45/9
f 76/41/9 74/43/9 72/45/9
f 72/45/9 71/46/12 70/47/9
f 70/47/9 69/48/13 68/49/9
f 72/45/9 70/47/9 68/49/9
f 76/41/9 72/45/9 68/49/9
f 80/37/9 76/41/9 68/49/9
f 68/49/9 67/50/14 66/51/9
f 80/37/9 68/49/9 66/51/9
f 82/35/7 80/37/9 66/51/9
f 83/52/15 82/35/7 66/51/9
f 66/51/16 67/50/17 85/53/18
f 85/53/18 84/54/16 66/51/16
f 67/50/17 68/49/19 86/55/20
f 86/55/20 85/53/18 67/50/17
f 68/49/19 69/48/21 87/56/22
f 87/56/22 86/55/20 68/49/19
f 69/48/21 70/47/23 88/57/24
f 88/57/24 87/56/22 69/48/21
f 70/58/23 71/59/25 89/60/26
f 89/60/26 88/61/24 70/58/23
f 71/59/25 72/62/27 90/63/28
f 90/63/28 89/60/26 71/59/25
f 72/62/27 73/64/29 91/65/30
f 91/65/30 90/63/28 72/62/27
f 73/64/29 74/66/31 92/67/32
f 92/67/32 91/65/30 73/64/29
f 74/66/31 75/68/33 93/69/33
f 93/69/33 92/67/32 74/66/31
f 75/68/33 76/70/34 94/71/35
f 94/71/35 93/69/33 75/68/33
f 76/70/34 77/72/36 95/73/37
f 95/73/37 94/71/35 76/70/34
f 77/72/36 78/74/38 96/75/39
f 96/75/39 95/73/37 77/72/36
f 78/74/38 79/76/40 97/77/41
f 97/77/41 96/75/39 78/74/38
f 79/76/40 80/78/42 98/79/43
f 98/79/43 97/77/41 79/76/40
f 80/78/42 81/80/44 99/81/45
f 99/81/45 98/79/43 80/78/42
f 81/80/44 82/82/46 100/83/47
f 100/83/47 99/81/45 81/80/44
f 82/82/46 83/84/48 101/85/49
f 101/85/49 100/83/47 82/82/46
f 83/84/48 66/51/16 84/54/16
f 84/54/16 101/85/49 83/84/48
f 84/54/16 85/53/18 103/86/18
f 103/86/18 102/87/16 84/54/16
f 85/53/18 86/55/20 104/88/20
f 104/88/20 103/86/18 85/53/18
f 86/55/20 87/56/22 105/89/22
f 105/89/22 104/88/20 86/55/20
f 87/56/22 88/57/24 106/90/24
f 106/90/24 105/89/22 87/56/22
f 88/61/24 89/60/26 107/91/26
f 107/91/26 106/92/24 88/61/24
f 89/60/26 90/63/28 108/93/28
f 108/93/28 107/91/26 89/60/26
f 90/63/28 91/65/30 109/94/30
f 109/94/30 108/93/28 90/63/28
f 91/65/30 92/67/32 110/95/32
f 110/95/32 109/94/30 91/65/30
f 92/67/32 93/69/33 111/96/33
f 111/96/33 110/95/32 92/67/32
f 93/69/33 94/71/35 112/97/35
f 112/97/35 111/96/33 93/69/33
f 94/71/35 95/73/37 113/98/37
f 113/98/37 112/97/35 94/71/35
f 95/73/37 96/75/39 114/99/39
f 114/99/39 113/98/37 95/73/37
f 96/75/39 97/77/41 115/100/41
f 115/100/41 114/99/39 96/75/39
f 97/77/41 98/79/43 116/101/43
f 116/101/43 115/100/41 97/77/41
f 98/79/43 99/81/45 117/102/45
f 117/102/45 116/101/43 98/79/43
f 99/81/45 100/83/47 118/103/47
f 118/103/47 117/102/45 99/81/45
f 100/83/47 101/85/49 119/104/49
f 119/104/49 118/103/47 100/83/47
f 101/85/49 84/54/16 102/87/16
f 102/87/16 119/104/49 101/85/49
f 102/87/16 103/86/18 121/105/18
f 121/105/18 120/106/16 102/87/16
f 103/86/18 104/88/20 122/107/20
f 122/107/20 121/105/18 103/86/18
f 104/88/20 105/89/22 123/108/22
f 123/108/22 122/107/20 104/88/20
f 105/89/22 106/90/24 124/109/24
f 124/109/24 123/108/22 105/89/22
f 106/92/24 107/91/26 125/110/26
f 125/110/26 124/111/24 106/92/24
f 107/91/26 108/93/28 126/112/28
f 126/112/28 125/110/26 107/91/26
f 108/93/28 109/94/30 127/113/30
f 127/113/30 126/112/28 108/93/28
f 109/94/30 110/95/32 128/114/32
f 128/114/32 127/113/30 109/94/30
f 110/95/32 111/96/33 129/115/33
f 129/115/33 128/114/32 110/95/32
f 111/96/33 112/97/35 130/116/35
f 130/116/35 129/115/33 111/96/33
f 112/97/35 113/98/37 131/117/37
f 131/117/37 130/116/35 112/97/35
f 113/98/37 114/99/39 132/118/39
f 132/118/39 131/117/37 113/98/37
f 114/99/39 115/100/41 133/119/41
f 133/119/41 132/118/39 114/99/39
f 115/100/41 116/101/43 134/120/43
f 134/120/43 133/119/41 115/100/41
f 116/101/43 117/102/45 135/121/45
f 135/121/45 134/120/43 116/101/43
f 117/102/45 118/103/47 136/122/47
f 136/122/47 135/121/45 117/102/45
f 118/103/47 119/104/49 137/123/49
f 137/123/49 136/122/47 118/103/47
f 119/104/49 102/87/16 120/106/16
f 120/106/16 137/123/49 119/104/49
f 120/106/16 121/105/18 139/124/18
f 139/124/18 138/125/16 120/106/16
f 121/105/18 122/107/20 140/126/20
f 140/126/20 139/124/18 121/105/18
f 122/107/20 123/108/22 141/127/22
f 141/127/22 140/126/20 122/107/20
f 123/108/22 124/109/24 142/128/24
f 142/128/24 141/127/22 123/108/22
f 124/111/24 125/110/26 143/129/26
f 143/129/26 142/130/24 124/111/24
f 125/110/26 126/112/28 144/131/28
f 144/131/28 143/129/26 125/110/26
f 126/112/28 127/113/30 145/132/30
f 145/132/30 144/131/28 126/112/28
f 127/113/30 128/114/32 146/133/32
f 146/133/32 145/132/30 127/113/30
f 128/114/32 129/115/33 147/134/33
f 147/134/33 146/133/32 128/114/32
f 129/115/33 130/116/35 148/135/35
f 148/135/35 147/134/33 129/115/33
f 130/116/35 131/117/37 149/136/37
f 149/136/37 148/135/35 130/116/35
f 131/117/37 132/118/39 150/137/39
f 150/137/39 149/136/37 131/117/37
f 132/118/39 133/119/41 151/138/41
f 151/138/41 150/137/39 132/118/39
f 133/119/41 134/120/43 152/139/43
f 152/139/43 151/138/41 133/119/41
f 134/120/43 135/121/45 153/140/45
f 153/140/45 152/139/43 134/120/43
f 135/121/45 136/122/47 154/141/47
f 154/141/47 153/140/45 135/121/45
f 136/122/47 137/123/49 155/142/49
f 155/142/49 154/141/47 136/122/47
f 137/123/49 120/106/16 138/125/16
f 138/125/16 155/142/49 137/123/49
f 138/125/16 139/124/18 157/143/50
f 157/143/50 156/144/16 138/125/16
f 139/124/18 140/126/20 158/145/51
f 158/145/51 157/143/50 139/124/18
f 140/126/20 141/127/22 159/146/52
f 159/146/52 158/145/51 140/126/20
f 141/127/22 142/128/24 160/147/53
f 160/147/53 159/146/52 141/127/22
f 142/130/24 143/129/26 161/148/54
f 161/148/54 160/149/53 142/130/24
f 143/129/26 144/131/28 162/150/55
f 162/150/55 161/148/54 143/129/26
f 144/131/28 145/132/30 163/151/56
f 163/151/56 162/150/55 144/131/28
f 145/132/30 146/133/32 164/152/57
f 164/152/57 163/151/56 145/132/30
f 146/133/32 147/134/33 165/153/33
f 165/153/33 164/152/57 146/133/32
f 147/134/33 148/135/35 166/154/58
f 166/154/58 165/153/33 147/134/33
f 148/135/35 149/136/37 167/155/59
f 167/155/59 166/154/58 148/135/35
f 149/136/37 150/137/39 168/156/60
f 168/156/60 167/155/59 149/136/37
f 150/137/39 151/138/41 169/157/61
f 169/157/61 168/156/60 150/137/39
f 151/138/41 152/139/43 170/158/62
f 170/158/62 169/157/61 151/138/41
f 152/139/43 153/140/45 171/159/63
f 171/159/63 170/158/62 152/139/43
f 153/140/45 154/141/47 172/160/64
f 172/160/64 171/159/63 153/140/45
f 154/141/47 155/142/49 173/161/65
f 173/161/65 172/160/64 154/141/47
f 155/142/49 138/125/16 156/144/16
f 156/144/16 173/161/65 155/142/49
f 156/144/66 157/143/67 158/145/68
f 158/145/68 159/146/69 160/147/68
f 160/147/68 161/162/70 162/163/68
f 158/145/68 160/147/68 162/163/68
f 162/163/68 163/164/71 164/165/66
f 164/165/66 165/166/71 166/167/68
f 162/163/68 164/165/66 166/167/68
f 166/167/68 167/168/68 168/169/68
f 168/169/68 169/170/72 170/171/68
f 166/167/68 168/169/68 170/171/68
f 162/163/68 166/167/68 170/171/68
f 158/145/68 162/163/68 170/171/68
f 170/171/68 171/172/73 172/173/68
f 158/145/68 170/171/68 172/173/68
f 156/144/66 158/145/68 172/173/68
f 173/161/74 156/144/66 172/173/68
usemtl table_outline
f 40/174/1 41/32/1 38/175/1
f 38/175/1 3/176/1 40/174/1
f 49/30/3 48/29/3 6/177/3
f 6/177/3 2/178/3 49/30/3
f 26/179/3 25/1/3 11/4/3
f 11/4/3 7/180/3 26/179/3
f 37/181/5 36/22/5 12/21/5
f 12/21/5 8/182/5 37/181/5
f 33/183/6 34/3/6 14/24/6
f 14/24/6 10/23/6 33/183/6
f 8/182/3 12/21/3 25/1/3
f 25/1/3 26/179/3 8/182/3
f 6/184/1 48/185/1 47/34/1
f 47/34/1 28/186/1 6/184/1
f 9/8/5 13/7/5 36/22/5
f 36/22/5 37/181/5 9/8/5
f 7/180/6 11/4/6 34/3/6
f 34/3/6 33/183/6 7/180/6
f 28/186/1 47/34/1 46/33/1
f 46/33/1 39/187/1 28/186/1
f 45/188/1 46/33/1 41/32/1
f 41/32/1 40/174/1 45/188/1
f 5/189/1 27/190/1 42/31/1
f 42/31/1 43/191/1 5/189/1
f 27/190/1 38/175/1 41/32/1
f 41/32/1 42/31/1 27/190/1
f 43/191/1 42/31/1 47/34/1
f 47/34/1 48/185/1 43/191/1
f 4/192/1 39/187/1 46/33/1
f 46/33/1 45/188/1 4/192/1
usemtl metal_stand
f 50/193/4 52/194/4 53/195/4
f 53/195/4 51/196/4 50/193/4
f 54/197/1 55/198/1 57/199/1
f 57/199/1 56/200/1 54/197/1
f 50/201/2 51/202/2 55/203/2
f 55/203/2 54/204/2 50/201/2
f 51/196/6 53/205/6 57/199/6
f 57/199/6 55/206/6 51/196/6
f 53/207/3 52/208/3 56/209/3
f 56/209/3 57/210/3 53/207/3
f 52/211/5 50/193/5 54/212/5
f 54/212/5 56/200/5 52/211/5
f 58/213/4 60/214/4 61/215/4
f 61/215/4 59/216/4 58/213/4
f 62/217/1 63/218/1 65/219/1
f 65/219/1 64/220/1 62/217/1
f 58/221/2 59/222/2 63/223/2
f 63/223/2 62/224/2 58/221/2
f 59/216/6 61/225/6 65/219/6
f 65/219/6 63/226/6 59/216/6
f 61/227/3 60/228/3 64/229/3
f 64/229/3 65/230/3 61/227/3
f 60/231/5 58/213/5 62/232/5
f 62/232/5 64/220/5 60/231/5
f 174/233/4 176/234/4 177/235/4
f 177/235/4 175/236/4 174/233/4
f 178/237/1 179/238/1 181/239/1
f 181/239/1 180/240/1 178/237/1
f 174/241/2 175/242/2 179/243/2
f 179/243/2 178/244/2 174/241/2
f 175/236/6 177/245/6 181/239/6
f 181/239/6 179/246/6 175/236/6
f 177/247/3 176/248/3 180/249/3
f 180/249/3 181/250/3 177/247/3
f 176/251/5 174/233/5 178/252/5
f 178/252/5 180/240/5 176/251/5
