# Blender v2.79 (sub 0) OBJ File: ''
# www.blender.org
mtllib stand_blender.mtl
o computer_monitor_Untitled.003
v -0.194319 0.731016 0.210407
v -0.198888 0.734309 0.656165
v 0.098930 0.492840 0.215172
v 0.094360 0.496134 0.660930
v -0.143318 0.793811 0.210465
v -0.147887 0.797105 0.656223
v 0.149931 0.555636 0.215231
v 0.145362 0.558930 0.660989
v -0.318315 0.503861 0.213987
v -0.322884 0.507155 0.659745
v -0.089375 0.804413 0.214113
v -0.093944 0.807707 0.659871
v -0.382663 0.552878 0.212965
v -0.387233 0.556172 0.658723
v -0.153723 0.853430 0.213091
v -0.158292 0.856723 0.658849
vt 1.000000 0.000000
vt 1.000000 1.000000
vt 0.000000 1.000000
vt 0.000000 0.000000
vt 0.000000 0.000000
vt 1.000000 0.000000
vt 1.000000 1.000000
vt 0.000000 1.000000
vt 0.000000 0.000000
vt 1.000000 0.000000
vt 1.000000 1.000000
vt 0.000000 1.000000
vt 1.000000 0.000000
vt 0.000000 1.000000
vt 0.000000 0.000000
vt 1.000000 0.000000
vt 1.000000 1.000000
vt 0.000000 1.000000
vt 0.000000 0.000000
vt 1.000000 1.000000
vt 1.000000 0.000000
vt 1.000000 1.000000
vt 0.000000 1.000000
vt 0.000000 0.000000
vt 0.000000 0.000000
vt 1.000000 0.000000
vt 1.000000 1.000000
vt 0.000000 1.000000
vt 0.000000 0.000000
vt 1.000000 0.000000
vt 1.000000 1.000000
vt 0.000000 1.000000
vt 1.000000 0.000000
vt 0.000000 1.000000
vt 0.000000 0.000000
vt 1.000000 0.000000
vt 1.000000 1.000000
vt 0.000000 1.000000
vt 0.000000 0.000000
vt 1.000000 1.000000
vn -0.6304 -0.7762 -0.0007
vn 0.6304 0.7762 0.0007
vn -0.7762 0.6304 -0.0126
vn -0.0102 0.0074 0.9999
vn 0.7762 -0.6304 0.0126
vn 0.0102 -0.0074 -0.9999
vn 0.7954 -0.6059 0.0126
vn -0.7954 0.6059 -0.0126
vn -0.6060 -0.7955 -0.0003
vn 0.6060 0.7955 0.0003
usemtl None
s 1
f 1/1/1 3/2/1 4/3/1 2/4/1
f 5/5/2 6/6/2 8/7/2 7/8/2
f 1/9/3 2/10/3 6/11/3 5/12/3
f 2/4/4 4/13/4 8/7/4 6/14/4
f 4/15/5 3/16/5 7/17/5 8/18/5
f 3/19/6 1/1/6 5/20/6 7/8/6
f 9/21/7 11/22/7 12/23/7 10/24/7
f 13/25/8 14/26/8 16/27/8 15/28/8
f 9/29/9 10/30/9 14/31/9 13/32/9
f 10/24/4 12/33/4 16/27/4 14/34/4
f 12/35/10 11/36/10 15/37/10 16/38/10
f 11/39/6 9/21/6 13/40/6 15/28/6
o control_panel_Untitled.002
v -0.017308 0.621936 -0.093382
v -0.018864 0.623058 0.058494
v 0.082607 0.540786 -0.091758
v 0.081050 0.541908 0.060118
v 0.000069 0.643331 -0.093362
v -0.001487 0.644454 0.058514
v 0.099984 0.562181 -0.091738
v 0.098427 0.563304 0.060138
v -0.059555 0.544541 -0.092162
v -0.061112 0.545663 0.059714
v 0.018449 0.646944 -0.092120
v 0.016892 0.648066 0.059757
v -0.081479 0.561242 -0.092511
v -0.083036 0.562364 0.059366
v -0.003476 0.663644 -0.092468
v -0.005033 0.664767 0.059409
vt 1.000000 0.000000
vt 1.000000 1.000000
vt 0.000000 1.000000
vt 0.000000 0.000000
vt 0.000000 0.000000
vt 1.000000 0.000000
vt 1.000000 1.000000
vt 0.000000 1.000000
vt 0.000000 0.000000
vt 1.000000 0.000000
vt 1.000000 1.000000
vt 0.000000 1.000000
vt 1.000000 0.000000
vt 0.000000 1.000000
vt 0.000000 0.000000
vt 1.000000 0.000000
vt 1.000000 1.000000
vt 0.000000 1.000000
vt 0.000000 0.000000
vt 1.000000 1.000000
vt 1.000000 0.000000
vt 1.000000 1.000000
vt 0.000000 1.000000
vt 0.000000 0.000000
vt 0.000000 0.000000
vt 1.000000 0.000000
vt 1.000000 1.000000
vt 0.000000 1.000000
vt 0.000000 0.000000
vt 1.000000 0.000000
vt 1.000000 1.000000
vt 0.000000 1.000000
vt 1.000000 0.000000
vt 0.000000 1.000000
vt 0.000000 0.000000
vt 1.000000 0.000000
vt 1.000000 1.000000
vt 0.000000 1.000000
vt 0.000000 0.000000
vt 1.000000 1.000000
vn -0.6304 -0.7762 -0.0007
vn 0.6304 0.7762 0.0007
vn -0.7762 0.6304 -0.0126
vn -0.0102 0.0074 0.9999
vn 0.7762 -0.6304 0.0126
vn 0.0102 -0.0074 -0.9999
vn 0.7954 -0.6059 0.0126
vn -0.7954 0.6059 -0.0126
vn -0.6060 -0.7955 -0.0003
vn 0.6060 0.7955 0.0003
usemtl None
s 1
f 17/41/11 19/42/11 20/43/11 18/44/11
f 21/45/12 22/46/12 24/47/12 23/48/12
f 17/49/13 18/50/13 22/51/13 21/52/13
f 18/44/14 20/53/14 24/47/14 22/54/14
f 20/55/15 19/56/15 23/57/15 24/58/15
f 19/59/16 17/41/16 21/60/16 23/48/16
f 25/61/17 27/62/17 28/63/17 26/64/17
f 29/65/18 30/66/18 32/67/18 31/68/18
f 25/69/19 26/70/19 30/71/19 29/72/19
f 26/64/14 28/73/14 32/67/14 30/74/14
f 28/75/20 27/76/20 31/77/20 32/78/20
f 27/79/16 25/61/16 29/80/16 31/68/16
o Box001_Untitled.001
v -0.467325 0.000000 0.746990
v 0.284849 0.000000 0.746990
v -0.467325 -0.000000 -0.256584
v 0.284849 -0.000000 -0.256584
v -0.467325 0.532399 0.746990
v 0.284849 0.532399 0.746990
v -0.467325 0.532399 -0.256584
v 0.284849 0.532399 -0.256584
v -0.467325 0.532399 0.746990
v 0.284849 0.532399 0.746990
v 0.284849 0.532399 -0.256584
v -0.467325 0.532399 -0.256584
v -0.467325 0.638250 0.746990
v 0.284849 0.638250 0.746990
v 0.284849 0.638250 -0.256584
v -0.467325 0.638250 -0.256584
v -0.467325 0.532399 0.695772
v 0.284849 0.532399 0.695772
v 0.284849 0.638250 0.695772
v -0.467325 0.638250 0.695772
v 0.284849 0.532399 -0.205366
v -0.467325 0.532399 -0.205366
v -0.467325 0.638250 -0.205366
v 0.284849 0.638250 -0.205366
v 0.161926 0.532399 0.746990
v 0.161926 0.532399 -0.256584
v 0.161926 0.638250 -0.256584
v 0.161926 0.638250 0.746990
v -0.467325 0.532399 0.695772
v 0.284849 0.532399 0.695772
v 0.284849 0.638250 0.695772
v -0.467325 0.638250 0.695772
v -0.467325 0.532399 0.746990
v 0.284849 0.532399 0.746990
v 0.284849 0.638250 0.746990
v -0.467325 0.638250 0.746990
v 0.284849 0.532399 -0.205366
v -0.467325 0.532399 -0.205366
v -0.467325 0.638250 -0.205366
v 0.284849 0.638250 -0.205366
v 0.284849 0.532399 -0.253169
v -0.467325 0.532399 -0.253169
v -0.467325 0.638250 -0.253169
v 0.284849 0.638250 -0.253169
v 0.161926 0.532399 0.746990
v 0.161926 0.532399 -0.256584
v 0.161926 0.638250 -0.256584
v 0.161926 0.638250 0.746990
v 0.281434 0.532399 0.746990
v 0.281434 0.532399 -0.256584
v 0.281434 0.638250 -0.256584
v 0.281434 0.638250 0.746990
v 0.284849 0.532399 -0.256584
v -0.467325 0.532399 -0.256584
v -0.467325 0.638250 -0.256584
v 0.284849 0.638250 -0.256584
vt 1.000000 0.000000
vt 1.000000 1.000000
vt 0.000000 1.000000
vt 0.000000 0.000000
vt 0.000000 0.000000
vt 1.000000 0.000000
vt 1.000000 1.000000
vt 0.000000 1.000000
vt 1.000000 0.000000
vt 1.000000 1.000000
vt 0.000000 1.000000
vt 0.000000 0.000000
vt 1.000000 0.000000
vt 1.000000 1.000000
vt 0.000000 1.000000
vt 0.000000 0.000000
vt 1.000000 1.000000
vt 0.000000 1.000000
vt 0.000000 0.000000
vt 1.000000 0.000000
vt 1.000000 0.000000
vt 0.000000 0.000000
vt 1.000000 0.000000
vt 1.000000 0.000000
vt 0.000000 0.000000
vt 0.000000 0.000000
vt 1.000000 1.000000
vt 0.000000 1.000000
vt 0.000000 1.000000
vt 1.000000 1.000000
vt 0.000000 1.000000
vt 0.000000 1.000000
vt 1.000000 1.000000
vt 1.000000 1.000000
vt 1.000000 1.000000
vt 1.000000 0.000000
vt 1.000000 1.000000
vt 1.000000 0.000000
vt 0.000000 0.000000
vt 1.000000 0.000000
vt 1.000000 0.000000
vt 0.000000 0.000000
vt 0.000000 0.000000
vt 1.000000 0.000000
vt 1.000000 0.000000
vt 0.000000 0.000000
vt 1.000000 1.000000
vt 0.000000 1.000000
vt 0.000000 1.000000
vt 1.000000 1.000000
vt 1.000000 1.000000
vt 0.000000 1.000000
vt 0.000000 1.000000
vt 1.000000 1.000000
vt 0.000000 1.000000
vt 0.000000 1.000000
vt 1.000000 1.000000
vt 1.000000 1.000000
vt 1.000000 0.000000
vt 1.000000 1.000000
vt 1.000000 1.000000
vt 1.000000 0.000000
vt 1.000000 0.000000
vt 1.000000 1.000000
vt 1.000000 1.000000
vt 1.000000 0.000000
vt 0.000000 0.000000
vt 1.000000 0.000000
vn 0.0000 -1.0000 0.0000
vn 0.0000 0.0000 1.0000
vn 1.0000 0.0000 0.0000
vn 0.0000 0.0000 -1.0000
vn -1.0000 0.0000 0.0000
vn 0.0000 1.0000 0.0000
usemtl stand
s 1
f 33/81/21 35/82/21 36/83/21 34/84/21
f 33/85/22 34/86/22 38/87/22 37/88/22
f 34/84/23 36/89/23 40/90/23 38/91/23
f 36/92/24 35/93/24 39/94/24 40/95/24
f 35/96/25 33/81/25 37/97/25 39/98/25
f 41/99/26 42/100/26 50/101/26 49/102/26
f 42/100/25 46/103/25 51/104/25 50/101/25
f 46/103/21 45/105/21 52/106/21 51/104/21
f 45/105/23 41/99/23 49/102/23 52/106/23
f 43/107/26 44/108/26 54/109/26 53/110/26
f 44/108/23 48/111/23 55/112/23 54/109/23
f 48/111/21 47/113/21 56/114/21 55/112/21
f 47/113/25 43/107/25 53/110/25 56/114/25
f 42/100/26 43/107/26 58/115/26 57/116/26
f 43/107/22 47/113/22 59/117/22 58/115/22
f 47/113/21 46/103/21 60/118/21 59/117/21
f 46/103/24 42/100/24 57/116/24 60/118/24
f 65/119/22 66/120/22 67/121/22 68/122/22
f 61/123/21 62/124/21 66/120/21 65/119/21
f 62/124/23 63/125/23 67/121/23 66/120/23
f 63/125/26 64/126/26 68/122/26 67/121/26
f 64/126/25 61/123/25 65/119/25 68/122/25
f 85/127/24 86/128/24 87/129/24 88/130/24
f 69/131/21 70/132/21 74/133/21 73/134/21
f 70/132/25 71/135/25 75/136/25 74/133/25
f 71/135/26 72/137/26 76/138/26 75/136/26
f 72/137/23 69/131/23 73/134/23 76/138/23
f 81/139/23 82/140/23 83/141/23 84/142/23
f 77/143/21 78/144/21 82/140/21 81/139/21
f 78/144/24 79/145/24 83/141/24 82/140/24
f 79/145/26 80/146/26 84/142/26 83/141/26
f 80/146/22 77/143/22 81/139/22 84/142/22
f 73/134/21 74/133/21 86/128/21 85/127/21
f 74/133/25 75/136/25 87/129/25 86/128/25
f 75/136/26 76/138/26 88/130/26 87/129/26
f 76/138/23 73/134/23 85/127/23 88/130/23
usemtl top_of_stand
f 37/147/26 38/148/26 40/90/26 39/98/26
f 49/102/22 50/101/22 51/104/22 52/106/22
f 57/116/23 58/115/23 59/117/23 60/118/23
f 53/110/24 54/109/24 55/112/24 56/114/24
