# 3ds Max Wavefront OBJ Exporter v0.97b - (c)2007 guruware
# File Created: 26.04.2018 12:13:30

mtllib desk.mtl

#
# object Box001
#

v  -72.9319 17.4854 7.2225
v  -66.1085 17.4854 7.2225
v  -66.1085 17.4854 4.7400
v  -72.9319 17.4854 4.7400
v  82.4288 9.2241 -25.2900
v  77.0894 9.2241 -25.2900
v  77.0894 17.4854 -25.2900
v  82.4288 17.4854 -25.2900
v  -72.9319 15.0755 7.2225
v  -72.3655 15.0755 7.2225
v  -72.3655 15.0755 -23.9123
v  -72.9319 15.0755 -23.9123
v  -72.3655 17.4854 7.2225
v  82.4288 17.4854 7.2225
v  82.4288 17.4854 -23.9123
v  82.4288 15.0755 -23.9123
v  82.4288 15.0755 7.2225
v  -72.3655 17.4854 -25.2900
v  -72.3655 15.0755 -25.2900
v  82.4288 15.0755 -25.2900
v  -72.9319 17.4854 -25.2900
v  -72.9319 17.4854 -23.9123
v  -72.9319 15.0755 -25.2900
v  82.4288 9.2241 -26.3745
v  -72.9319 9.2241 -26.3745
v  -72.9319 17.4854 -26.3745
v  82.4288 17.4854 -26.3745
v  -72.9319 9.2241 -25.2900
v  -72.9319 18.2084 -25.2900
v  82.4288 18.2084 -25.2900
v  82.4288 18.2084 -26.3745
v  -72.9319 18.2084 -26.3745
v  82.4288 17.4854 -24.6218
v  77.0894 17.4854 -24.6218
v  82.4288 17.4854 4.7400
v  77.0894 17.4854 4.7400
v  77.0894 17.4854 7.2225
v  -66.1085 9.2241 -25.2900
v  -66.1085 17.4854 -25.2900
v  -72.9319 17.4854 -24.6218
v  -66.1085 17.4854 -24.6218
v  72.8650 -1.1633 -22.6915
v  72.8650 -1.1633 -25.4351
v  77.3987 -1.1633 -25.4351
v  77.3987 -1.1633 -22.6915
v  72.8650 16.8603 -22.6915
v  77.3987 16.8603 -22.6915
v  77.3987 16.8603 -25.4351
v  72.8650 16.8603 -25.4351
v  1.9822 -1.1633 -22.6915
v  1.9822 -1.1633 -25.4351
v  6.5159 -1.1633 -25.4351
v  6.5159 -1.1633 -22.6915
v  1.9822 16.8603 -22.6915
v  6.5159 16.8603 -22.6915
v  6.5159 16.8603 -25.4351
v  1.9822 16.8603 -25.4351
v  82.8481 18.8113 -25.6243
v  82.8468 18.7327 -25.4414
v  82.8449 18.6123 -25.3057
v  82.8425 18.4645 -25.2334
v  82.8400 18.3072 -25.2334
v  82.8376 18.1594 -25.3057
v  82.8356 18.0390 -25.4414
v  82.8344 17.9603 -25.6243
v  82.8339 17.9330 -25.8323
v  82.8344 17.9603 -26.0403
v  82.8356 18.0390 -26.2232
v  82.8376 18.1594 -26.3589
v  82.8400 18.3072 -26.4311
v  82.8425 18.4645 -26.4311
v  82.8449 18.6123 -26.3589
v  82.8468 18.7327 -26.2232
v  82.8481 18.8113 -26.0403
v  82.8485 18.8387 -25.8323
v  51.5997 18.8297 -26.0403
v  51.6001 18.8570 -25.8323
v  51.5984 18.7510 -26.2232
v  51.5965 18.6306 -26.3589
v  51.5941 18.4828 -26.4311
v  51.5916 18.3255 -26.4311
v  51.5892 18.1778 -26.3589
v  51.5872 18.0573 -26.2232
v  51.5860 17.9787 -26.0403
v  51.5855 17.9514 -25.8323
v  51.5860 17.9787 -25.6243
v  51.5872 18.0573 -25.4414
v  51.5892 18.1778 -25.3057
v  51.5916 18.3255 -25.2334
v  51.5941 18.4828 -25.2334
v  51.5965 18.6306 -25.3057
v  51.5984 18.7510 -25.4414
v  51.5997 18.8297 -25.6243
v  20.3513 18.8480 -26.0403
v  20.3517 18.8753 -25.8323
v  20.3500 18.7694 -26.2232
v  20.3481 18.6489 -26.3589
v  20.3457 18.5011 -26.4311
v  20.3432 18.3439 -26.4311
v  20.3408 18.1961 -26.3589
v  20.3388 18.0756 -26.2232
v  20.3376 17.9970 -26.0403
v  20.3371 17.9697 -25.8323
v  20.3376 17.9970 -25.6243
v  20.3388 18.0756 -25.4414
v  20.3408 18.1961 -25.3057
v  20.3432 18.3439 -25.2334
v  20.3457 18.5011 -25.2334
v  20.3481 18.6489 -25.3057
v  20.3500 18.7694 -25.4414
v  20.3513 18.8480 -25.6243
v  -10.8971 18.8663 -26.0403
v  -10.8967 18.8936 -25.8323
v  -10.8984 18.7877 -26.2232
v  -10.9003 18.6672 -26.3589
v  -10.9027 18.5194 -26.4311
v  -10.9053 18.3622 -26.4311
v  -10.9076 18.2144 -26.3589
v  -10.9096 18.0939 -26.2232
v  -10.9109 18.0153 -26.0403
v  -10.9113 17.9880 -25.8323
v  -10.9109 18.0153 -25.6243
v  -10.9096 18.0939 -25.4414
v  -10.9076 18.2144 -25.3057
v  -10.9053 18.3622 -25.2334
v  -10.9027 18.5194 -25.2334
v  -10.9003 18.6672 -25.3057
v  -10.8984 18.7877 -25.4414
v  -10.8971 18.8663 -25.6243
v  -42.1455 18.8846 -26.0403
v  -42.1451 18.9119 -25.8323
v  -42.1468 18.8060 -26.2232
v  -42.1488 18.6855 -26.3589
v  -42.1511 18.5377 -26.4311
v  -42.1537 18.3805 -26.4311
v  -42.1560 18.2327 -26.3589
v  -42.1580 18.1122 -26.2232
v  -42.1593 18.0336 -26.0403
v  -42.1597 18.0063 -25.8323
v  -42.1593 18.0336 -25.6243
v  -42.1580 18.1122 -25.4414
v  -42.1560 18.2327 -25.3057
v  -42.1537 18.3805 -25.2334
v  -42.1511 18.5377 -25.2334
v  -42.1488 18.6855 -25.3057
v  -42.1468 18.8060 -25.4414
v  -42.1455 18.8846 -25.6243
v  -73.3939 18.9029 -26.0403
v  -73.3935 18.9302 -25.8323
v  -73.3952 18.8243 -26.2232
v  -73.3972 18.7038 -26.3589
v  -73.3995 18.5561 -26.4311
v  -73.4021 18.3988 -26.4311
v  -73.4044 18.2510 -26.3589
v  -73.4064 18.1306 -26.2232
v  -73.4077 18.0519 -26.0403
v  -73.4081 18.0246 -25.8323
v  -73.4077 18.0519 -25.6243
v  -73.4064 18.1306 -25.4414
v  -73.4044 18.2510 -25.3057
v  -73.4021 18.3988 -25.2334
v  -73.3995 18.5561 -25.2334
v  -73.3972 18.7038 -25.3057
v  -73.3952 18.8243 -25.4414
v  -73.3939 18.9029 -25.6243
v  -67.7995 -1.1633 -22.6915
v  -67.7995 -1.1633 -25.4351
v  -63.2658 -1.1633 -25.4351
v  -63.2658 -1.1633 -22.6915
v  -67.7995 16.8603 -22.6915
v  -63.2658 16.8603 -22.6915
v  -63.2658 16.8603 -25.4351
v  -67.7995 16.8603 -25.4351
# 173 vertices

vn 0.0000 1.0000 -0.0000
vn 0.0000 0.0000 -1.0000
vn 0.0000 0.7071 -0.7071
vn 0.5774 0.5774 -0.5774
vn 0.7071 0.7071 -0.0000
vn 0.7071 0.0000 -0.7071
vn -0.7071 0.0000 -0.7071
vn -1.0000 0.0000 -0.0000
vn -0.7071 0.7071 -0.0000
vn -0.5774 0.5774 -0.5774
vn -0.7071 0.0000 0.7071
vn 0.0000 0.0000 1.0000
vn 0.0000 0.7071 0.7071
vn -0.5774 0.5774 0.5774
vn 0.7071 0.0000 0.7071
vn 1.0000 0.0000 -0.0000
vn 0.5774 0.5774 0.5774
vn 0.5774 -0.5774 -0.5774
vn -0.5774 -0.5774 -0.5774
vn 0.7071 -0.7071 -0.0000
vn -0.7071 -0.7071 -0.0000
vn -0.8944 0.0000 0.4472
vn 0.8944 0.0000 0.4472
vn -0.0000 1.0000 -0.0000
vn 0.0000 1.0000 0.0000
vn -0.0000 1.0000 0.0000
vn -0.5774 -0.5774 0.5774
vn 0.5774 -0.5774 0.5774
vn 0.6812 0.7055 0.1956
vn 0.6762 0.6202 0.3976
vn 0.6683 0.4466 0.5949
vn 0.6606 0.1642 0.7326
vn 0.6588 -0.1745 0.7318
vn 0.6636 -0.4561 0.5930
vn 0.6697 -0.6285 0.3956
vn 0.6738 -0.7129 0.1944
vn 0.6752 -0.7377 -0.0000
vn 0.6738 -0.7129 -0.1944
vn 0.6697 -0.6285 -0.3956
vn 0.6636 -0.4561 -0.5930
vn 0.6588 -0.1745 -0.7318
vn 0.6606 0.1642 -0.7326
vn 0.6683 0.4466 -0.5949
vn 0.6762 0.6202 -0.3976
vn 0.6812 0.7055 -0.1956
vn 0.6827 0.7307 -0.0000
vn 0.0010 0.9642 -0.2651
vn 0.0010 1.0000 -0.0000
vn 0.0009 0.8441 -0.5362
vn 0.0006 0.6050 -0.7962
vn 0.0002 0.2254 -0.9743
vn -0.0002 -0.2254 -0.9743
vn -0.0006 -0.6050 -0.7962
vn -0.0009 -0.8441 -0.5362
vn -0.0010 -0.9642 -0.2651
vn -0.0010 -1.0000 -0.0000
vn -0.0010 -0.9642 0.2651
vn -0.0009 -0.8441 0.5362
vn -0.0006 -0.6050 0.7962
vn -0.0002 -0.2254 0.9743
vn 0.0002 0.2254 0.9743
vn 0.0006 0.6050 0.7962
vn 0.0009 0.8441 0.5362
vn 0.0010 0.9642 0.2651
vn 0.0010 1.0000 0.0000
vn -0.6738 0.7129 -0.1944
vn -0.6751 0.7378 -0.0000
vn -0.6697 0.6285 -0.3956
vn -0.6636 0.4560 -0.5930
vn -0.6588 0.1745 -0.7318
vn -0.6606 -0.1642 -0.7326
vn -0.6683 -0.4466 -0.5949
vn -0.6762 -0.6202 -0.3976
vn -0.6811 -0.7056 -0.1956
vn -0.6828 -0.7306 -0.0000
vn -0.6811 -0.7056 0.1956
vn -0.6762 -0.6202 0.3976
vn -0.6683 -0.4466 0.5949
vn -0.6606 -0.1642 0.7326
vn -0.6588 0.1745 0.7318
vn -0.6636 0.4560 0.5930
vn -0.6697 0.6285 0.3956
vn -0.6738 0.7129 0.1944
# 83 vertex normals

vt 0.0000 0.0000 0.0000
vt 0.0439 0.0000 0.0000
vt 0.0439 0.0764 0.0000
vt 0.0000 0.0764 0.0000
vt 0.0344 0.0000 0.0000
vt 0.0344 1.0000 0.0000
vt 0.0000 1.0000 0.0000
vt 0.0036 0.0000 0.0000
vt 0.0036 0.9576 0.0000
vt 0.0000 0.9576 0.0000
vt 1.0000 0.0000 0.0000
vt 1.0000 0.9576 0.0000
vt 1.0000 1.0000 0.0000
vt 0.0036 1.0000 0.0000
vt 1.0000 0.9794 0.0000
vt 0.9656 1.0000 0.0000
vt 0.9656 0.9794 0.0000
vt 1.0000 0.0764 0.0000
vt 0.9656 0.0764 0.0000
vt 0.9656 0.0000 0.0000
vt 0.9561 0.0000 0.0000
vt 0.9561 1.0000 0.0000
vt 0.0439 1.0000 0.0000
vt 0.0000 0.9794 0.0000
vt 0.0439 0.9794 0.0000
vt 0.3400 0.0000 0.0000
vt 0.1953 0.0000 -0.3473
vt 0.0874 0.0000 -0.6527
vt 0.0292 0.0000 -0.8794
vt 0.0278 0.0000 -1.0000
vt 0.0833 0.0000 -1.0000
vt 0.1891 0.0000 -0.8794
vt 0.3325 0.0000 -0.6527
vt 0.4960 0.0000 -0.3473
vt 0.6600 0.0000 -0.0000
vt 0.8047 0.0000 0.3473
vt 0.9126 0.0000 0.6527
vt 0.9708 0.0000 0.8794
vt 0.9722 0.0000 1.0000
vt 0.9167 0.0000 1.0000
vt 0.8611 0.0000 1.0000
vt 0.8056 0.0000 1.0000
vt 0.7500 0.0000 1.0000
vt 0.8056 0.2000 1.0000
vt 0.7500 0.2000 1.0000
vt 0.8611 0.2000 1.0000
vt 0.9167 0.2000 1.0000
vt 0.9722 0.2000 1.0000
vt -0.0278 0.0000 1.0000
vt 0.0278 0.0000 1.0000
vt 0.0278 0.2000 1.0000
vt -0.0278 0.2000 1.0000
vt 0.0833 0.0000 1.0000
vt 0.0833 0.2000 1.0000
vt 0.1389 0.0000 1.0000
vt 0.1389 0.2000 1.0000
vt 0.1944 0.0000 1.0000
vt 0.1944 0.2000 1.0000
vt 0.2500 0.0000 1.0000
vt 0.2500 0.2000 1.0000
vt 0.3056 0.0000 1.0000
vt 0.3056 0.2000 1.0000
vt 0.3611 0.0000 1.0000
vt 0.3611 0.2000 1.0000
vt 0.4167 0.0000 1.0000
vt 0.4167 0.2000 1.0000
vt 0.4722 0.0000 1.0000
vt 0.4722 0.2000 1.0000
vt 0.5278 0.0000 1.0000
vt 0.5278 0.2000 1.0000
vt 0.5833 0.0000 1.0000
vt 0.5833 0.2000 1.0000
vt 0.6389 0.0000 1.0000
vt 0.6389 0.2000 1.0000
vt 0.6944 0.0000 1.0000
vt 0.6944 0.2000 1.0000
vt 0.8056 0.4000 1.0000
vt 0.7500 0.4000 1.0000
vt 0.8611 0.4000 1.0000
vt 0.9167 0.4000 1.0000
vt 0.9722 0.4000 1.0000
vt 0.0278 0.4000 1.0000
vt -0.0278 0.4000 1.0000
vt 0.0833 0.4000 1.0000
vt 0.1389 0.4000 1.0000
vt 0.1944 0.4000 1.0000
vt 0.2500 0.4000 1.0000
vt 0.3056 0.4000 1.0000
vt 0.3611 0.4000 1.0000
vt 0.4167 0.4000 1.0000
vt 0.4722 0.4000 1.0000
vt 0.5278 0.4000 1.0000
vt 0.5833 0.4000 1.0000
vt 0.6389 0.4000 1.0000
vt 0.6944 0.4000 1.0000
vt 0.8056 0.6000 1.0000
vt 0.7500 0.6000 1.0000
vt 0.8611 0.6000 1.0000
vt 0.9167 0.6000 1.0000
vt 0.9722 0.6000 1.0000
vt 0.0278 0.6000 1.0000
vt -0.0278 0.6000 1.0000
vt 0.0833 0.6000 1.0000
vt 0.1389 0.6000 1.0000
vt 0.1944 0.6000 1.0000
vt 0.2500 0.6000 1.0000
vt 0.3056 0.6000 1.0000
vt 0.3611 0.6000 1.0000
vt 0.4167 0.6000 1.0000
vt 0.4722 0.6000 1.0000
vt 0.5278 0.6000 1.0000
vt 0.5833 0.6000 1.0000
vt 0.6389 0.6000 1.0000
vt 0.6944 0.6000 1.0000
vt 0.8056 0.8000 1.0000
vt 0.7500 0.8000 1.0000
vt 0.8611 0.8000 1.0000
vt 0.9167 0.8000 1.0000
vt 0.9722 0.8000 1.0000
vt 0.0278 0.8000 1.0000
vt -0.0278 0.8000 1.0000
vt 0.0833 0.8000 1.0000
vt 0.1389 0.8000 1.0000
vt 0.1944 0.8000 1.0000
vt 0.2500 0.8000 1.0000
vt 0.3056 0.8000 1.0000
vt 0.3611 0.8000 1.0000
vt 0.4167 0.8000 1.0000
vt 0.4722 0.8000 1.0000
vt 0.5278 0.8000 1.0000
vt 0.5833 0.8000 1.0000
vt 0.6389 0.8000 1.0000
vt 0.6944 0.8000 1.0000
vt 0.8056 1.0000 1.0000
vt 0.7500 1.0000 1.0000
vt 0.8611 1.0000 1.0000
vt 0.9167 1.0000 1.0000
vt 0.9722 1.0000 1.0000
vt 0.0278 1.0000 1.0000
vt -0.0278 1.0000 1.0000
vt 0.0833 1.0000 1.0000
vt 0.1389 1.0000 1.0000
vt 0.1944 1.0000 1.0000
vt 0.2500 1.0000 1.0000
vt 0.3056 1.0000 1.0000
vt 0.3611 1.0000 1.0000
vt 0.4167 1.0000 1.0000
vt 0.4722 1.0000 1.0000
vt 0.5278 1.0000 1.0000
vt 0.5833 1.0000 1.0000
vt 0.6389 1.0000 1.0000
vt 0.6944 1.0000 1.0000
vt 0.9708 1.0000 0.8794
vt 0.9126 1.0000 0.6527
vt 0.8047 1.0000 0.3473
vt 0.6600 1.0000 0.0000
vt 0.4960 1.0000 -0.3473
vt 0.3325 1.0000 -0.6527
vt 0.1891 1.0000 -0.8794
vt 0.0833 1.0000 -1.0000
vt 0.0278 1.0000 -1.0000
vt 0.0292 1.0000 -0.8794
vt 0.0874 1.0000 -0.6527
vt 0.1953 1.0000 -0.3473
# 164 texture coords

o Box001
g Box001
usemtl wire_085028177
s 4
f 1/1/1 2/2/1 3/3/1 4/4/1 
s 32
f 5/1/2 6/5/2 7/6/3 8/7/3 
s 4
f 9/1/4 10/8/3 11/9/1 12/10/5 
s off
f 1/1/6 13/8/2 10/8/3 9/1/4 
f 14/11/7 15/12/8 16/12/9 17/11/10 
f 8/13/11 18/14/12 19/14/13 20/13/14 
f 21/7/15 22/10/16 12/10/5 23/7/17 
s 32
f 24/1/18 25/11/19 26/13/7 27/7/6 
s off
f 5/1/20 28/11/21 25/11/19 24/1/18 
f 28/11/21 21/13/22 26/13/7 25/11/19 
f 29/13/14 30/7/17 31/7/4 32/13/10 
f 8/7/23 5/1/20 24/1/18 27/7/6 
s 4
f 10/8/3 17/11/10 16/12/9 11/9/1 
s off
f 13/8/2 14/11/7 17/11/10 10/8/3 
f 18/14/12 21/7/15 23/7/17 19/14/13 
s 4
f 33/15/1 8/13/3 7/16/3 34/17/24 
s off
f 21/13/22 8/7/23 30/7/17 29/13/14 
f 8/7/23 27/7/6 31/7/4 30/7/17 
f 27/7/6 26/13/7 32/13/10 31/7/4 
f 26/13/7 21/13/22 29/13/14 32/13/10 
s 4
f 11/9/1 19/14/13 23/7/17 12/10/5 
s off
f 15/12/8 8/13/11 20/13/14 16/12/9 
f 22/10/16 1/1/6 9/1/4 12/10/5 
s 4
f 16/12/9 20/13/14 19/14/13 11/9/1 
f 35/18/1 33/15/1 34/17/24 36/19/1 
f 2/2/1 37/20/1 36/19/1 3/3/1 
s 32
f 38/21/2 28/11/2 21/13/3 39/22/3 
s 4
f 39/23/3 21/7/3 40/24/25 41/25/26 
f 41/25/26 40/24/25 4/4/1 3/3/1 
s 32
f 6/5/2 38/21/2 39/22/3 7/6/3 
s 4
f 7/16/3 39/23/3 41/25/26 34/17/24 
f 34/17/24 41/25/26 3/3/1 36/19/1 
f 37/20/1 14/11/1 35/18/1 36/19/1 
s 2
f 42/11/27 43/13/19 44/7/18 45/1/28 
s 4
f 46/1/14 47/11/17 48/13/4 49/7/10 
s 8
f 42/1/27 45/11/28 47/13/17 46/7/14 
s 16
f 45/1/28 44/11/18 48/13/4 47/7/17 
s 32
f 44/1/18 43/11/19 49/13/10 48/7/4 
s 64
f 43/1/19 42/11/27 46/13/14 49/7/10 
s 2
f 50/11/27 51/13/19 52/7/18 53/1/28 
s 4
f 54/1/14 55/11/17 56/13/4 57/7/10 
s 8
f 50/1/27 53/11/28 55/13/17 54/7/14 
s 16
f 53/1/28 52/11/18 56/13/4 55/7/17 
s 32
f 52/1/18 51/11/19 57/13/10 56/7/4 
s 64
f 51/1/19 50/11/27 54/13/14 57/7/10 
s 1
f 58/26/29 59/27/30 60/28/31 61/29/32 62/30/33 63/31/34 64/32/35 65/33/36 66/34/37 67/35/38 68/36/39 69/37/40 70/38/41 71/39/42 72/40/43 73/41/44 74/42/45 75/43/46 
s 8
f 75/43/46 74/42/45 76/44/47 77/45/48 
f 74/42/45 73/41/44 78/46/49 76/44/47 
f 73/41/44 72/40/43 79/47/50 78/46/49 
f 72/40/43 71/39/42 80/48/51 79/47/50 
f 71/49/42 70/50/41 81/51/52 80/52/51 
f 70/50/41 69/53/40 82/54/53 81/51/52 
f 69/53/40 68/55/39 83/56/54 82/54/53 
f 68/55/39 67/57/38 84/58/55 83/56/54 
f 67/57/38 66/59/37 85/60/56 84/58/55 
f 66/59/37 65/61/36 86/62/57 85/60/56 
f 65/61/36 64/63/35 87/64/58 86/62/57 
f 64/63/35 63/65/34 88/66/59 87/64/58 
f 63/65/34 62/67/33 89/68/60 88/66/59 
f 62/67/33 61/69/32 90/70/61 89/68/60 
f 61/69/32 60/71/31 91/72/62 90/70/61 
f 60/71/31 59/73/30 92/74/63 91/72/62 
f 59/73/30 58/75/29 93/76/64 92/74/63 
f 58/75/29 75/43/46 77/45/48 93/76/64 
f 77/45/48 76/44/47 94/77/47 95/78/48 
f 76/44/47 78/46/49 96/79/49 94/77/47 
f 78/46/49 79/47/50 97/80/50 96/79/49 
f 79/47/50 80/48/51 98/81/51 97/80/50 
f 80/52/51 81/51/52 99/82/52 98/83/51 
f 81/51/52 82/54/53 100/84/53 99/82/52 
f 82/54/53 83/56/54 101/85/54 100/84/53 
f 83/56/54 84/58/55 102/86/55 101/85/54 
f 84/58/55 85/60/56 103/87/56 102/86/55 
f 85/60/56 86/62/57 104/88/57 103/87/56 
f 86/62/57 87/64/58 105/89/58 104/88/57 
f 87/64/58 88/66/59 106/90/59 105/89/58 
f 88/66/59 89/68/60 107/91/60 106/90/59 
f 89/68/60 90/70/61 108/92/61 107/91/60 
f 90/70/61 91/72/62 109/93/62 108/92/61 
f 91/72/62 92/74/63 110/94/63 109/93/62 
f 92/74/63 93/76/64 111/95/64 110/94/63 
f 93/76/64 77/45/48 95/78/48 111/95/64 
f 95/78/48 94/77/47 112/96/47 113/97/65 
f 94/77/47 96/79/49 114/98/49 112/96/47 
f 96/79/49 97/80/50 115/99/50 114/98/49 
f 97/80/50 98/81/51 116/100/51 115/99/50 
f 98/83/51 99/82/52 117/101/52 116/102/51 
f 99/82/52 100/84/53 118/103/53 117/101/52 
f 100/84/53 101/85/54 119/104/54 118/103/53 
f 101/85/54 102/86/55 120/105/55 119/104/54 
f 102/86/55 103/87/56 121/106/56 120/105/55 
f 103/87/56 104/88/57 122/107/57 121/106/56 
f 104/88/57 105/89/58 123/108/58 122/107/57 
f 105/89/58 106/90/59 124/109/59 123/108/58 
f 106/90/59 107/91/60 125/110/60 124/109/59 
f 107/91/60 108/92/61 126/111/61 125/110/60 
f 108/92/61 109/93/62 127/112/62 126/111/61 
f 109/93/62 110/94/63 128/113/63 127/112/62 
f 110/94/63 111/95/64 129/114/64 128/113/63 
f 111/95/64 95/78/48 113/97/65 129/114/64 
f 113/97/65 112/96/47 130/115/47 131/116/48 
f 112/96/47 114/98/49 132/117/49 130/115/47 
f 114/98/49 115/99/50 133/118/50 132/117/49 
f 115/99/50 116/100/51 134/119/51 133/118/50 
f 116/102/51 117/101/52 135/120/52 134/121/51 
f 117/101/52 118/103/53 136/122/53 135/120/52 
f 118/103/53 119/104/54 137/123/54 136/122/53 
f 119/104/54 120/105/55 138/124/55 137/123/54 
f 120/105/55 121/106/56 139/125/56 138/124/55 
f 121/106/56 122/107/57 140/126/57 139/125/56 
f 122/107/57 123/108/58 141/127/58 140/126/57 
f 123/108/58 124/109/59 142/128/59 141/127/58 
f 124/109/59 125/110/60 143/129/60 142/128/59 
f 125/110/60 126/111/61 144/130/61 143/129/60 
f 126/111/61 127/112/62 145/131/62 144/130/61 
f 127/112/62 128/113/63 146/132/63 145/131/62 
f 128/113/63 129/114/64 147/133/64 146/132/63 
f 129/114/64 113/97/65 131/116/48 147/133/64 
f 131/116/48 130/115/47 148/134/66 149/135/67 
f 130/115/47 132/117/49 150/136/68 148/134/66 
f 132/117/49 133/118/50 151/137/69 150/136/68 
f 133/118/50 134/119/51 152/138/70 151/137/69 
f 134/121/51 135/120/52 153/139/71 152/140/70 
f 135/120/52 136/122/53 154/141/72 153/139/71 
f 136/122/53 137/123/54 155/142/73 154/141/72 
f 137/123/54 138/124/55 156/143/74 155/142/73 
f 138/124/55 139/125/56 157/144/75 156/143/74 
f 139/125/56 140/126/57 158/145/76 157/144/75 
f 140/126/57 141/127/58 159/146/77 158/145/76 
f 141/127/58 142/128/59 160/147/78 159/146/77 
f 142/128/59 143/129/60 161/148/79 160/147/78 
f 143/129/60 144/130/61 162/149/80 161/148/79 
f 144/130/61 145/131/62 163/150/81 162/149/80 
f 145/131/62 146/132/63 164/151/82 163/150/81 
f 146/132/63 147/133/64 165/152/83 164/151/82 
f 147/133/64 131/116/48 149/135/67 165/152/83 
s 1
f 165/152/83 149/135/67 148/134/66 150/136/68 151/137/69 152/138/70 153/153/71 154/154/72 155/155/73 156/156/74 157/157/75 158/158/76 159/159/77 160/160/78 161/161/79 162/162/80 163/163/81 164/164/82 
s 2
f 166/11/27 167/13/19 168/7/18 169/1/28 
s 4
f 170/1/14 171/11/17 172/13/4 173/7/10 
s 8
f 166/1/27 169/11/28 171/13/17 170/7/14 
s 16
f 169/1/28 168/11/18 172/13/4 171/7/17 
s 32
f 168/1/18 167/11/19 173/13/10 172/7/4 
s 64
f 167/1/19 166/11/27 170/13/14 173/7/10 
# 143 polygons

